      <svg xmlns="http://www.w3.org/2000/svg" class="grid">
        <line x2="100%" y2="100%" />
        <line x1="100%" y2="100%" />
        <line x2="43%" y1="100%" />
        <line x1="100%" x2="57%" y1="100%" />
        <line x1="26.3%" x2="47.5%" y1="100%" />
        <line x1="73.7%" x2="52.5%" y1="100%" />
        <line x2="40%" y2="100%" />
        <line x1="26%" x2="48%" y2="100%" />
        <line x2="21%" y2="100%" />
        <line x1="100%" x2="60%" y2="100%" />
        <line x1="74%" x2="52%" y2="100%" />
        <line x1="100%" x2="79%" y2="100%" />

        <line x2="21%" y1="100%" />
        <line x1="100%" x2="79%" y1="100%" />

        <line x1="20%" x2="20%" y2="100%" />
        <line x1="50%" x2="50%" y2="100%" />
        <line x1="80%" x2="80%" y2="100%" />
        <line x2="100%" y1="20%" y2="20%" />
        <line x2="100%" y1="33.33%" y2="33.33%" />
        <line x2="100%" y1="50%" y2="50%" />
        <line x2="100%" y1="66.66%" y2="66.66%" />
        <line x2="100%" y1="80%" y2="80%" />
      </svg>