<svg xmlns="http://www.w3.org/2000/svg" width="393" height="596" fill="none">
  <path stroke="#fff" stroke-opacity="1" d="m391.418-.725-392 595M.417-.276l393 594M.481-.135l167 594M83.505 594.07l-84-594M224.519 593.864l168-594M308.505 593.93l84-594M166.481.135l-167 594M104.495-.069l83 596M82.495.069l-83 594M225.481-.136l168 594M309.495-.07l84 594M289.495.07l-84 594M206.495-.069l83 596M186.495.069l-83 594M0 116.5h397M78.5 0v594.001M196.5 0v594M393 196.5H0M393 295.5H0M393 395.5H0M313.5 0v596.001M393 474.5H0"/>
</svg>