<svg width="393" height="596" viewBox="0 0 393 596" fill="none" xmlns="http://www.w3.org/2000/svg">
<line x1="391.418" y1="-0.724921" x2="-0.582475" y2="594.275" stroke="white" stroke-opacity="0.2"/>
<line x1="0.416995" y1="-0.27589" x2="393.417" y2="593.724" stroke="white" stroke-opacity="0.2"/>
<line x1="0.481339" y1="-0.135326" x2="167.481" y2="593.865" stroke="white" stroke-opacity="0.2"/>
<line x1="83.5049" y1="594.07" x2="-0.495075" y2="0.0700239" stroke="white" stroke-opacity="0.2"/>
<line x1="224.519" y1="593.864" x2="392.519" y2="-0.136075" stroke="white" stroke-opacity="0.2"/>
<line x1="308.505" y1="593.93" x2="392.505" y2="-0.0699971" stroke="white" stroke-opacity="0.2"/>
<line x1="166.481" y1="0.135326" x2="-0.518655" y2="594.135" stroke="white" stroke-opacity="0.2"/>
<line x1="104.495" y1="-0.0689653" x2="187.495" y2="595.931" stroke="white" stroke-opacity="0.2"/>
<line x1="82.4952" y1="0.0691931" x2="-0.504809" y2="594.069" stroke="white" stroke-opacity="0.2"/>
<line x1="225.481" y1="-0.136076" x2="393.481" y2="593.864" stroke="white" stroke-opacity="0.2"/>
<line x1="309.495" y1="-0.0700105" x2="393.495" y2="593.93" stroke="white" stroke-opacity="0.2"/>
<line x1="289.495" y1="0.0700105" x2="205.495" y2="594.07" stroke="white" stroke-opacity="0.2"/>
<line x1="206.495" y1="-0.0689653" x2="289.495" y2="595.931" stroke="white" stroke-opacity="0.2"/>
<line x1="186.495" y1="0.0691931" x2="103.495" y2="594.069" stroke="white" stroke-opacity="0.2"/>
<line y1="116.5" x2="397" y2="116.5" stroke="white" stroke-opacity="0.2"/>
<line x1="78.5" y1="2.18557e-08" x2="78.5" y2="594.001" stroke="white" stroke-opacity="0.2"/>
<line x1="196.5" x2="196.5" y2="594" stroke="white" stroke-opacity="0.2"/>
<line x1="393" y1="196.5" y2="196.5" stroke="white" stroke-opacity="0.2"/>
<line x1="393" y1="295.5" y2="295.5" stroke="white" stroke-opacity="0.2"/>
<line x1="393" y1="395.5" x2="-4.37114e-08" y2="395.5" stroke="white" stroke-opacity="0.2"/>
<line x1="313.5" y1="2.18557e-08" x2="313.5" y2="596.001" stroke="white" stroke-opacity="0.2"/>
<line x1="393" y1="474.5" x2="-4.37114e-08" y2="474.5" stroke="white" stroke-opacity="0.2"/>
</svg>
